# xmcd
#
# Track frame offsets:
#	150
#	12184
#	24042
#	34182
#	47183
#	58959
#	68641
#	79043
#	89146
#	104874
#	120788
#	132120
#	144346
#	156169
#	171765
#	183806
#	199044
#	211838
#	226246
#	239363
#	253311
#	263299
#	278359
#	288945
#	303816
#
# Disc length: 4205 seconds
#
# Revision: 0
# Processed by: cddbd v1.5.2PL0 Copyright (c) Steve Scherf et al.
# Submitted via: FairStars CD Ripper 1.80
#
DISCID=4b106b19
DTITLE=Big Maybelle - The Very Best Of cd1
DYEAR=2016
DGENRE=Soul
TTITLE0=Gabbin' Blues
TTITLE1=Candy
TTITLE2=Ring Dang Dilly
TTITLE3=I got It Bad (And That Ain't Good)
TTITLE4=Don't Leave Poor Me
TTITLE5=A Good Man Is Hard To Find
TTITLE6=I Don't Want To Cry
TTITLE7=Rock House
TTITLE8=How Deep Is The Ocean
TTITLE9=I'll Close My Eyes
TTITLE10=That's A Pretty Good Love
TTITLE11=It's A Sin To Tell A Lie
TTITLE12=My Big Mistake
TTITLE13=Cry
TTITLE14=I Understand
TTITLE15=Stay As Sweet As You Are
TTITLE16=One Monkey Don't Stop No Show
TTITLE17=Tortured
TTITLE18=Pitiful
TTITLE19=If
TTITLE20=Going Home Baby
TTITLE21=Baby, Won't You Please Come Home
TTITLE22=Until The Real Thing Comes Along
TTITLE23=Why Was I Born
TTITLE24=All Of Me
EXTD=
EXTT0=
EXTT1=
EXTT2=
EXTT3=
EXTT4=
EXTT5=
EXTT6=
EXTT7=
EXTT8=
EXTT9=
EXTT10=
EXTT11=
EXTT12=
EXTT13=
EXTT14=
EXTT15=
EXTT16=
EXTT17=
EXTT18=
EXTT19=
EXTT20=
EXTT21=
EXTT22=
EXTT23=
EXTT24=
PLAYORDER=
